<svg xmlns="http://www.w3.org/2000/svg" viewBox="0 20.700000762939453 186.10000610351562 37.95000076293945" data-asc="1.16" width="186.10000610351562" height="37.95000076293945"><defs/><g fill="#bc002d"><g transform="translate(0, 0)"><path d="M12.80 58.65Q8.90 58.65 5.63 57.20Q2.35 55.75 0 53.25L2.75 50.05Q4.70 52.10 7.35 53.35Q10 54.60 12.85 54.60Q16.50 54.60 18.52 52.95Q20.55 51.30 20.55 48.65Q20.55 46.70 19.73 45.55Q18.90 44.40 17.52 43.62Q16.15 42.85 14.40 42.10L9.15 39.80Q7.45 39.05 5.72 37.90Q4 36.75 2.85 34.90Q1.70 33.05 1.70 30.40Q1.70 27.55 3.20 25.37Q4.70 23.20 7.30 21.95Q9.90 20.70 13.25 20.70Q16.55 20.70 19.33 21.95Q22.10 23.20 24 25.20L21.60 28.15Q19.90 26.60 17.88 25.67Q15.85 24.75 13.25 24.75Q10.15 24.75 8.28 26.17Q6.40 27.60 6.40 30.05Q6.40 31.85 7.33 33.00Q8.25 34.15 9.65 34.85Q11.05 35.55 12.50 36.20L17.70 38.45Q19.80 39.35 21.52 40.60Q23.25 41.85 24.25 43.70Q25.25 45.55 25.25 48.25Q25.25 51.15 23.75 53.52Q22.25 55.90 19.45 57.27Q16.65 58.65 12.80 58.65ZM43 58.65Q39.35 58.65 36.40 56.95Q33.45 55.25 31.72 52.07Q30 48.90 30 44.45Q30 41.10 31 38.47Q32 35.85 33.73 33.97Q35.45 32.10 37.65 31.12Q39.85 30.15 42.15 30.15Q45.65 30.15 48.05 31.70Q50.45 33.25 51.73 36.12Q53 39.00 53 42.90Q53 43.65 52.95 44.30Q52.90 44.95 52.80 45.50L34.50 45.50Q34.65 48.40 35.83 50.52Q37 52.65 38.95 53.82Q40.90 55.00 43.50 55.00Q45.50 55.00 47.13 54.42Q48.75 53.85 50.30 52.85L51.90 55.90Q50.15 57.05 47.95 57.85Q45.75 58.65 43 58.65M34.45 42.25L49 42.25Q49 38.15 47.23 35.97Q45.45 33.80 42.25 33.80Q40.35 33.80 38.67 34.80Q37 35.80 35.88 37.65Q34.75 39.50 34.45 42.25ZM65 58.65Q62.75 58.65 60.95 57.75Q59.15 56.85 58.13 55.12Q57.10 53.40 57.10 50.95Q57.10 46.50 61.08 44.12Q65.05 41.75 73.75 40.80Q73.75 39.05 73.28 37.47Q72.80 35.90 71.60 34.92Q70.40 33.95 68.15 33.95Q65.80 33.95 63.73 34.87Q61.65 35.80 60 36.85L58.25 33.70Q59.50 32.90 61.15 32.07Q62.80 31.25 64.75 30.70Q66.70 30.15 68.90 30.15Q72.20 30.15 74.28 31.55Q76.35 32.95 77.33 35.42Q78.30 37.90 78.30 41.30L78.30 58.00L74.55 58.00L74.15 54.75L74 54.75Q72.10 56.35 69.83 57.50Q67.55 58.65 65 58.65M66.30 54.95Q68.25 54.95 70.03 54.05Q71.80 53.15 73.75 51.40L73.75 43.85Q69.20 44.35 66.50 45.27Q63.80 46.20 62.65 47.52Q61.50 48.85 61.50 50.65Q61.50 53.00 62.90 53.97Q64.30 54.95 66.30 54.95ZM86.90 58.00L86.90 30.85L90.65 30.85L91.10 35.80L91.20 35.80Q92.60 33.20 94.63 31.67Q96.65 30.15 98.90 30.15Q99.85 30.15 100.53 30.27Q101.20 30.40 101.80 30.75L100.95 34.70Q100.25 34.50 99.70 34.37Q99.15 34.25 98.30 34.25Q96.65 34.25 94.75 35.67Q92.85 37.10 91.50 40.55L91.50 58.00L86.90 58.00ZM102.55 58.00L113.25 39.05L103.25 21.35L108.35 21.35L113.35 30.70Q114.05 32.00 114.70 33.22Q115.35 34.45 116.25 36.10L116.45 36.10Q117.20 34.45 117.78 33.22Q118.35 32.00 119.05 30.70L123.95 21.35L128.80 21.35L118.80 39.30L129.55 58.00L124.45 58.00L119.05 48.10Q118.30 46.75 117.53 45.30Q116.75 43.85 115.85 42.15L115.65 42.15Q114.85 43.85 114.13 45.30Q113.40 46.75 112.70 48.10L107.45 58.00L102.55 58.00ZM142 58.65Q138.50 58.65 136.03 57.17Q133.55 55.70 131.90 52.85L135.20 50.45Q136.45 52.70 138.03 53.65Q139.60 54.60 141.55 54.60Q144.55 54.60 146 52.77Q147.45 50.95 147.45 46.80L147.45 21.35L152.10 21.35L152.10 47.25Q152.10 50.40 151.05 53.00Q150 55.60 147.78 57.12Q145.55 58.65 142 58.65ZM161.95 58.00L161.95 21.35L172.40 21.35Q176.50 21.35 179.60 22.37Q182.70 23.40 184.40 25.75Q186.10 28.10 186.10 32.10Q186.10 35.95 184.40 38.45Q182.70 40.95 179.65 42.17Q176.60 43.40 172.60 43.40L166.55 43.40L166.55 58.00L161.95 58.00M166.55 39.65L172 39.65Q176.80 39.65 179.15 37.85Q181.50 36.05 181.50 32.10Q181.50 28.10 179.08 26.60Q176.65 25.10 171.80 25.10L166.55 25.10L166.55 39.65Z"/></g></g></svg>